<svg width="195" height="19" viewBox="0 0 195 19" fill="none" xmlns="http://www.w3.org/2000/svg">
<path d="M2.52539 8.5C1.97311 8.5 1.52539 8.94772 1.52539 9.5C1.52539 10.0523 1.97311 10.5 2.52539 10.5L2.52539 8.5ZM183.143 10.2071C183.533 9.8166 183.533 9.18343 183.143 8.79291L176.779 2.42895C176.388 2.03842 175.755 2.03842 175.364 2.42895C174.974 2.81947 174.974 3.45264 175.364 3.84316L181.021 9.50002L175.364 15.1569C174.974 15.5474 174.974 16.1806 175.364 16.5711C175.755 16.9616 176.388 16.9616 176.779 16.5711L183.143 10.2071ZM2.52539 9.5L2.52539 10.5L182.436 10.5L182.436 9.50002L182.436 8.50002L2.52539 8.5L2.52539 9.5Z" fill="#4800FF"/>
</svg>
